# xmcd
#
# Track frame offsets:
#	150
#	21644
#	41028
#	57393
#	76608
#	93020
#	110473
#	127216
#	148945
#	169396
#	189498
#	208048
#
# Disc length: 2973 seconds
#
# Revision: 4
# Processed by: cddbd v1.5.2PL0 Copyright (c) Steve Scherf et al.
# Submitted via: audiograbber 1.83.01
#
DISCID=af0b9b0c
DTITLE=Newsboys - God's Not Dead
DYEAR=2011
DGENRE=Contemporary Christian 2011-2020
TTITLE0=The King Is Coming
TTITLE1=God's Not Dead (Like a Lion)
TTITLE2=Your Love Never Fails
TTITLE3=Here We Stand
TTITLE4=Savior of the World
TTITLE5=Forever Reign
TTITLE6=More Than Enough
TTITLE7=Revelation Song
TTITLE8=Pouring It Out for You
TTITLE9=Mighty to Save
TTITLE10=All the Way
TTITLE11=I Am Second
EXTD=
EXTT0=
EXTT1=
EXTT2=
EXTT3=
EXTT4=
EXTT5=
EXTT6=
EXTT7=
EXTT8=
EXTT9=
EXTT10=
EXTT11=
PLAYORDER=
